# xmcd
#
# Track frame offsets: 
#        150
#        14570
#        27095
#        40178
#        56643
#        71863
#        84015
#        99140
#        111778
#        131253
#        143933
#
# Disc length: 2200 seconds
#
# Revision: 4
# Processed by: cddbd v1.5.2PL0 Copyright (c) Steve Scherf et al.
# Submitted via: ExactAudioCopy v0.99pb3
#
DISCID=8808960b
DTITLE=Highwaymen - The Road Goes On Forever
DYEAR=1994
DGENRE=Country
TTITLE0=The Devil's Right Hand
TTITLE1=Live Forever
TTITLE2=Everyone Gets Crazy
TTITLE3=It Is What It Is
TTITLE4=I Do Believe
TTITLE5=The End Of Understanding
TTITLE6=True Love Travels A Gravel Road
TTITLE7=Death And Hell
TTITLE8=Waiting For A Long Time
TTITLE9=Here Comes That Rainbow Again
TTITLE10=The Road Goes On Forever
EXTD=Liberty Records CD - 7423 8 28091 2 8 YEAR: 1994
EXTT0=
EXTT1=
EXTT2=
EXTT3=
EXTT4=
EXTT5=
EXTT6=
EXTT7=
EXTT8=
EXTT9=
EXTT10=
PLAYORDER=
